 http://www.shotpix.com/images/51784210497017171653.png

 
http://www.imdb.com/title/tt1928335/




Plot:Captured international assassins are locked up inside a high-tech bunker known as the Killing Chamber... See full summary ┬╗
 


Director: 
Raimund Huber

 Writer: 
Ken Miller
 
Stars:
 Johnny Messner, Chia Hui Liu and Joe Lewis

Country:
USA 

Language:
English

Genres:
 Action 

Format                                   : AVI
Format/Info                              : Audio Video Interleave
File size                                : 1.20 GiB
Duration                                 : 1h 26mn
Overall bit rate                         : 1 998 Kbps

Video
ID                                       : 0
Format                                   : MPEG-4 Visual
Format profile                           : Simple@L3
Format settings, BVOP                    : No
Format settings, QPel                    : No
Format settings, GMC                     : No warppoints
Format settings, Matrix                  : Default (H.263)
Codec ID                                 : XVID
Codec ID/Hint                            : XviD
Duration                                 : 1h 26mn
Source duration                          : 1h 26mn
Bit rate                                 : 1 603 Kbps
Width                                    : 720 pixels
Height                                   : 400 pixels
Display aspect ratio                     : 16:9
Frame rate                               : 23.976 fps
Color space                              : YUV
Chroma subsampling                       : 4:2:0
Bit depth                                : 8 bits
Scan type                                : Progressive
Compression mode                         : Lossy
Bits/(Pixel*Frame)                       : 0.232
Stream size                              : 989 MiB (80%)
Writing library                          : XviD 1.1.2 (UTC 2006-11-01)

Audio
ID                                       : 1
Format                                   : AC-3
Format/Info                              : Audio Coding 3
Mode extension                           : CM (complete main)
Format settings, Endianness              : Big
Codec ID                                 : 2000
Duration                                 : 1h 26mn
Bit rate mode                            : Constant
Bit rate                                 : 384 Kbps
Channel(s)                               : 6 channels
Channel positions                        : Front: L C R, Side: L R, LFE
Sampling rate                            : 48.0 KHz
Bit depth                                : 16 bits
Compression mode                         : Lossy
Stream size                              : 237 MiB (19%)
Alignment                                : Aligned on interleaves
Interleave, duration                     : 32 ms (0.77 video frame)






 
http://www.shotpix.com/images/98745910132102410299.jpg 
http://www.shotpix.com/images/89053020111292315148.jpg 
http://www.shotpix.com/images/22718683085831256546.jpg 
http://www.shotpix.com/images/76104868875018126299.jpg